<?xml version="1.0" encoding="utf-8"?>
<!-- Generator: Adobe Illustrator 26.0.3, SVG Export Plug-In . SVG Version: 6.00 Build 0)  -->
<svg version="1.1" id="Layer_1" xmlns="http://www.w3.org/2000/svg" xmlns:xlink="http://www.w3.org/1999/xlink" x="0px" y="0px"
	 viewBox="0 0 190.2 141.9" style="enable-background:new 0 0 190.2 141.9;" xml:space="preserve">
<style type="text/css">
	.st0{fill:url(#SVGID_1_);}
	.st1{display:none;}
	.st2{display:inline;}
	
		.st3{clip-path:url(#SVGID_00000064354794741150304790000003373327946857768372_);fill:url(#SVGID_00000145775807333831012100000012196100144729836955_);}
	.st4{filter:url(#Adobe_OpacityMaskFilter);}
	.st5{fill:#FFFFFF;}
	
		.st6{mask:url(#SVGID_00000042015905237593758960000012970295974181375155_);fill:url(#SVGID_00000042017706565051587730000003769916807088513212_);}
</style>
<g id="Layer_2_00000085226323741809727000000017456402881103026821_">
	<g id="Layer_1-2">
		
			<linearGradient id="SVGID_1_" gradientUnits="userSpaceOnUse" x1="0" y1="1036.8" x2="190.3" y2="1036.8" gradientTransform="matrix(1 0 0 1 0 -996)">
			<stop  offset="0" style="stop-color:#90CEA1"/>
			<stop  offset="0.56" style="stop-color:#3CBEC9"/>
			<stop  offset="1" style="stop-color:#00B3E5"/>
		</linearGradient>
		<path class="st0" d="M105.7,36.1h66.9c9.8,0,17.7-7.9,17.7-17.7l0,0c0-9.8-7.9-17.7-17.7-17.7h-66.9C95.9,0.7,88,8.6,88,18.4l0,0
			l0,0C88,28.2,95.9,36.1,105.7,36.1z M17.7,81.1h76.9c9.8,0,17.7-7.9,17.7-17.7l0,0c0-9.8-7.9-17.7-17.7-17.7H17.7
			C7.9,45.7,0,53.6,0,63.4l0,0l0,0C0,73.2,7.9,81.1,17.7,81.1z M10.4,35.4h7.8V6.9h10.1V0h-28v6.9h10.1L10.4,35.4z M38.5,35.4h7.8
			V8.2h0.1l9,27.2h6l9.3-27.1h0.1v27.1h7.8V0H66.8l-8.2,23.1h-0.1L50.3,0H38.5V35.4z M152.4,55.7c-1-2.2-2.6-4.1-4.5-5.5
			c-2-1.5-4.3-2.5-6.7-3.1c-2.6-0.7-5.3-1-8.1-1h-11.7v35.4h12.8c2.6,0,5.1-0.4,7.6-1.2c2.3-0.7,4.5-1.8,6.3-3.3s3.3-3.4,4.4-5.5
			c1.1-2.4,1.7-5,1.6-7.6C154.2,61.1,153.6,58.3,152.4,55.7z M145,68.6c-0.6,1.3-1.5,2.5-2.6,3.4c-1.2,0.9-2.6,1.5-4,1.8
			c-1.6,0.4-3.3,0.6-5,0.6h-4.1v-21h4.6c1.6,0,3.2,0.2,4.7,0.6c1.4,0.4,2.7,1,3.9,1.9c1.1,0.8,1.9,1.9,2.5,3.1c0.7,1.4,1,3,1,4.5
			C146,65.3,145.7,67,145,68.6z M189.6,68.5c-0.4-1-0.9-1.9-1.6-2.6c-0.7-0.8-1.5-1.4-2.4-1.8c-1-0.5-2.1-0.8-3.2-1V63
			c1.7-0.5,3.3-1.5,4.4-2.8c1.2-1.4,1.8-3.2,1.7-5c0.1-1.6-0.3-3.2-1.1-4.7c-0.8-1.1-1.8-2.1-3-2.7c-1.3-0.7-2.7-1.1-4.2-1.3
			s-3.1-0.3-4.6-0.3h-13.2v35.4h14.5c1.6,0,3.2-0.2,4.7-0.5s3-0.9,4.3-1.7c1.3-0.7,2.3-1.8,3.1-3c0.8-1.4,1.3-3,1.2-4.7
			C190.2,70.6,190,69.5,189.6,68.5L189.6,68.5z M170.2,52.7h5.3c0.6,0,1.2,0.1,1.9,0.2c0.6,0.1,1.2,0.3,1.7,0.6s0.9,0.7,1.2,1.1
			c0.3,0.5,0.5,1.2,0.5,1.8s-0.1,1.2-0.4,1.8c-0.3,0.5-0.7,0.9-1.1,1.2c-0.5,0.3-1,0.5-1.6,0.7c-0.6,0.1-1.2,0.2-1.8,0.2h-5.6
			L170.2,52.7z M181.9,72.7c-0.3,0.5-0.7,1-1.2,1.3s-1.1,0.6-1.7,0.7c-0.6,0.1-1.2,0.2-1.8,0.2h-7v-8h5.9c0.7,0,1.3,0.1,2,0.2
			s1.4,0.3,2.1,0.6c0.6,0.3,1.2,0.7,1.6,1.2c0.4,0.6,0.7,1.3,0.6,2C182.4,71.5,182.2,72.1,181.9,72.7L181.9,72.7z"/>
	</g>
</g>
<g class="st1">
	<g class="st2">
		<defs>
			<path id="SVGID_00000035531632311501651650000010168883770555186816_" d="M181.2,125.7V94.4l-10.8,31.3h-6.8l-10.4-31.3
				l-0.1,31.3h-8.9l-0.1-40.8h13.6l9.5,26.6l9.4-26.6h13.5v40.8H181.2z M135.7,125.6l-16.3-40.7h-7.2l-16.8,40.7h9.6l10.2-26.7
				l10.2,26.7C125.4,125.6,135.7,125.6,135.7,125.6z M63.5,125.6L63.5,125.6L63.5,125.6c11.1,0,20.2-9.1,20.2-20.3l0,0
				c0-11.2-9.1-20.3-20.3-20.3h0.1l0,0c-11.2,0-20.3,9.1-20.3,20.4C43.1,116.5,52.2,125.6,63.5,125.6z M0.4,125.6h9V84.9h-9
				C0.4,84.9,0.4,125.6,0.4,125.6z M4.9,115.5h9c8.4,0,15.3-6.8,15.3-15.3s-6.8-15.3-15.3-15.3h-9 M19.5,110.1c0,0,0,0-5.6,5.4
				l6.3,10.2h9l-4.6-7.4l-6.3-10.2l4.6,7.4"/>
		</defs>
		<clipPath id="SVGID_00000160187192168309224710000003410766307500544172_">
			<use xlink:href="#SVGID_00000035531632311501651650000010168883770555186816_"  style="overflow:visible;"/>
		</clipPath>
		
			<linearGradient id="SVGID_00000030479236082421425230000009102371710569207179_" gradientUnits="userSpaceOnUse" x1="0.3" y1="38.75" x2="190.2" y2="38.75" gradientTransform="matrix(1 0 0 -1 0 144)">
			<stop  offset="0" style="stop-color:#90CEA1"/>
			<stop  offset="0.56" style="stop-color:#3CBEC9"/>
			<stop  offset="1" style="stop-color:#00B3E5"/>
		</linearGradient>
		
			<rect x="0.3" y="84.9" style="clip-path:url(#SVGID_00000160187192168309224710000003410766307500544172_);fill:url(#SVGID_00000030479236082421425230000009102371710569207179_);" width="189.9" height="40.7"/>
	</g>
</g>
<defs>
	<filter id="Adobe_OpacityMaskFilter" filterUnits="userSpaceOnUse" x="0" y="91.9" width="190.2" height="50">
		<feColorMatrix  type="matrix" values="1 0 0 0 0  0 1 0 0 0  0 0 1 0 0  0 0 0 1 0"/>
	</filter>
</defs>
<mask maskUnits="userSpaceOnUse" x="0" y="91.9" width="190.2" height="50" id="SVGID_00000165234373905173164650000015638980245484977287_">
	<g class="st4">
		<rect y="72.1" class="st5" width="190.2" height="69.8"/>
		<path d="M165.7,133.7V108l-8.9,25.7h-5.6l-8.5-25.7l-0.1,25.7h-7.3v-33.5h11.2l7.8,21.9l7.8-21.9h11.1v33.5H165.7z M128.3,133.7
			l-13.4-33.5H109l-13.8,33.5h7.9l8.4-22l8.4,22H128.3z M68.9,133.7L68.9,133.7L68.9,133.7c9.1,0,16.6-7.5,16.6-16.7l0,0
			c0-9.2-7.5-16.7-16.7-16.7h0.1l0,0c-9.2,0-16.7,7.5-16.7,16.8C52.2,126.2,59.7,133.7,68.9,133.7z M17.1,133.7h7.4v-33.5h-7.4
			V133.7z M20.8,125.4h7.4c6.9,0,12.6-5.6,12.6-12.6s-5.6-12.6-12.6-12.6h-7.4 M32.8,120.9c0,0,0,0-4.6,4.4l5.2,8.4h7.4l-3.8-6.1
			l-5.2-8.4l3.8,6.1"/>
	</g>
</mask>
<linearGradient id="SVGID_00000061448402450002512490000004464925543996762809_" gradientUnits="userSpaceOnUse" x1="0" y1="27.1" x2="190.2" y2="27.1" gradientTransform="matrix(1 0 0 -1 0 144)">
	<stop  offset="0" style="stop-color:#90CEA1"/>
	<stop  offset="0.56" style="stop-color:#3CBEC9"/>
	<stop  offset="1" style="stop-color:#00B3E5"/>
</linearGradient>
<path style="mask:url(#SVGID_00000165234373905173164650000015638980245484977287_);fill:url(#SVGID_00000061448402450002512490000004464925543996762809_);" d="
	M165.2,141.9H25c-13.8,0-25-11.2-25-25l0,0c0-13.8,11.2-25,25-25h140.2c13.8,0,25,11.2,25,25l0,0C190.2,130.7,179,141.9,165.2,141.9
	z"/>
<path class="st1" d="M164.4,113.4V87.7l-8.9,25.7h-5.6l-8.5-25.7l-0.1,25.7H134V79.9h11.2l7.8,21.9l7.8-21.9h11.1v33.5H164.4z
	 M127,113.4l-13.4-33.5h-5.9l-13.8,33.5h7.9l8.4-22l8.4,22H127z M67.6,113.4L67.6,113.4L67.6,113.4c9.1,0,16.6-7.5,16.6-16.7l0,0
	c0-9.2-7.5-16.7-16.7-16.7h0.1l0,0c-9.2,0-16.7,7.5-16.7,16.8C50.9,105.9,58.4,113.4,67.6,113.4z M15.8,113.4h7.4V79.9h-7.4V113.4z
	 M19.5,105.1h7.4c6.9,0,12.6-5.6,12.6-12.6s-5.6-12.6-12.6-12.6h-7.4 M31.5,100.6c0,0,0,0-4.6,4.4l5.2,8.4h7.4l-3.8-6.1l-5.2-8.4
	l3.8,6.1"/>
<path class="st1" d="M165.7,133.6v-25.7l-8.9,25.7h-5.6l-8.5-25.7l-0.1,25.7h-7.3v-33.5h11.2l7.8,21.9l7.8-21.9h11.1v33.5H165.7z
	 M128.3,133.6l-13.4-33.5H109l-13.8,33.5h7.9l8.4-22l8.4,22H128.3z M68.9,133.6L68.9,133.6L68.9,133.6c9.1,0,16.6-7.5,16.6-16.7l0,0
	c0-9.2-7.5-16.7-16.7-16.7h0.1l0,0c-9.2,0-16.7,7.5-16.7,16.8C52.2,126.1,59.7,133.6,68.9,133.6z M17.1,133.6h7.4v-33.5h-7.4V133.6z
	 M20.8,125.3h7.4c6.9,0,12.6-5.6,12.6-12.6s-5.6-12.6-12.6-12.6h-7.4 M32.8,120.8c0,0,0,0-4.6,4.4l5.2,8.4h7.4l-3.8-6.1l-5.2-8.4
	l3.8,6.1"/>
</svg>
